<svg id="visual" viewBox="0 0 900 200" width="900" height="200" xmlns="http://www.w3.org/2000/svg" xmlns:xlink="http://www.w3.org/1999/xlink" version="1.1"><path d="M0 76L13.7 77.2C27.3 78.3 54.7 80.7 82 75.5C109.3 70.3 136.7 57.7 163.8 52C191 46.3 218 47.7 245.2 48.5C272.3 49.3 299.7 49.7 327 54.8C354.3 60 381.7 70 409 73.8C436.3 77.7 463.7 75.3 491 69.2C518.3 63 545.7 53 573 54.7C600.3 56.3 627.7 69.7 654.8 69.2C682 68.7 709 54.3 736.2 47.2C763.3 40 790.7 40 818 41.7C845.3 43.3 872.7 46.7 886.3 48.3L900 50L900 201L886.3 201C872.7 201 845.3 201 818 201C790.7 201 763.3 201 736.2 201C709 201 682 201 654.8 201C627.7 201 600.3 201 573 201C545.7 201 518.3 201 491 201C463.7 201 436.3 201 409 201C381.7 201 354.3 201 327 201C299.7 201 272.3 201 245.2 201C218 201 191 201 163.8 201C136.7 201 109.3 201 82 201C54.7 201 27.3 201 13.7 201L0 201Z" fill="#fa7268"></path><path d="M0 93L13.7 95C27.3 97 54.7 101 82 104.2C109.3 107.3 136.7 109.7 163.8 111.2C191 112.7 218 113.3 245.2 109.2C272.3 105 299.7 96 327 92.8C354.3 89.7 381.7 92.3 409 93.8C436.3 95.3 463.7 95.7 491 97.5C518.3 99.3 545.7 102.7 573 99.8C600.3 97 627.7 88 654.8 84C682 80 709 81 736.2 82.5C763.3 84 790.7 86 818 86.2C845.3 86.3 872.7 84.7 886.3 83.8L900 83L900 201L886.3 201C872.7 201 845.3 201 818 201C790.7 201 763.3 201 736.2 201C709 201 682 201 654.8 201C627.7 201 600.3 201 573 201C545.7 201 518.3 201 491 201C463.7 201 436.3 201 409 201C381.7 201 354.3 201 327 201C299.7 201 272.3 201 245.2 201C218 201 191 201 163.8 201C136.7 201 109.3 201 82 201C54.7 201 27.3 201 13.7 201L0 201Z" fill="#eb5967"></path><path d="M0 131L13.7 128.5C27.3 126 54.7 121 82 120.2C109.3 119.3 136.7 122.7 163.8 126.7C191 130.7 218 135.3 245.2 132.7C272.3 130 299.7 120 327 118.8C354.3 117.7 381.7 125.3 409 128.3C436.3 131.3 463.7 129.7 491 129.5C518.3 129.3 545.7 130.7 573 128.7C600.3 126.7 627.7 121.3 654.8 123.2C682 125 709 134 736.2 136.2C763.3 138.3 790.7 133.7 818 129.2C845.3 124.7 872.7 120.3 886.3 118.2L900 116L900 201L886.3 201C872.7 201 845.3 201 818 201C790.7 201 763.3 201 736.2 201C709 201 682 201 654.8 201C627.7 201 600.3 201 573 201C545.7 201 518.3 201 491 201C463.7 201 436.3 201 409 201C381.7 201 354.3 201 327 201C299.7 201 272.3 201 245.2 201C218 201 191 201 163.8 201C136.7 201 109.3 201 82 201C54.7 201 27.3 201 13.7 201L0 201Z" fill="#da3f67"></path><path d="M0 161L13.7 161.5C27.3 162 54.7 163 82 165.2C109.3 167.3 136.7 170.7 163.8 170.5C191 170.3 218 166.7 245.2 162.7C272.3 158.7 299.7 154.3 327 152.2C354.3 150 381.7 150 409 149.8C436.3 149.7 463.7 149.3 491 152.8C518.3 156.3 545.7 163.7 573 165.2C600.3 166.7 627.7 162.3 654.8 161.5C682 160.7 709 163.3 736.2 161.2C763.3 159 790.7 152 818 151.2C845.3 150.3 872.7 155.7 886.3 158.3L900 161L900 201L886.3 201C872.7 201 845.3 201 818 201C790.7 201 763.3 201 736.2 201C709 201 682 201 654.8 201C627.7 201 600.3 201 573 201C545.7 201 518.3 201 491 201C463.7 201 436.3 201 409 201C381.7 201 354.3 201 327 201C299.7 201 272.3 201 245.2 201C218 201 191 201 163.8 201C136.7 201 109.3 201 82 201C54.7 201 27.3 201 13.7 201L0 201Z" fill="#c62368"></path></svg>