<svg id="visual" viewBox="0 0 900 150" width="900" height="150" xmlns="http://www.w3.org/2000/svg" xmlns:xlink="http://www.w3.org/1999/xlink" version="1.1"><path d="M0 25L11.5 24.3C23 23.7 46 22.3 69 28.5C92 34.7 115 48.3 138.2 52.2C161.3 56 184.7 50 207.8 51.2C231 52.3 254 60.7 277 65C300 69.3 323 69.7 346 68.8C369 68 392 66 415.2 65C438.3 64 461.7 64 484.8 65.3C508 66.7 531 69.3 554 61.3C577 53.3 600 34.7 623 30.7C646 26.7 669 37.3 692.2 36.8C715.3 36.3 738.7 24.7 761.8 19C785 13.3 808 13.7 831 19.3C854 25 877 36 888.5 41.5L900 47L900 151L888.5 151C877 151 854 151 831 151C808 151 785 151 761.8 151C738.7 151 715.3 151 692.2 151C669 151 646 151 623 151C600 151 577 151 554 151C531 151 508 151 484.8 151C461.7 151 438.3 151 415.2 151C392 151 369 151 346 151C323 151 300 151 277 151C254 151 231 151 207.8 151C184.7 151 161.3 151 138.2 151C115 151 92 151 69 151C46 151 23 151 11.5 151L0 151Z" fill="#3ba6a9"></path><path d="M0 90L11.5 82C23 74 46 58 69 52.2C92 46.3 115 50.7 138.2 52C161.3 53.3 184.7 51.7 207.8 57.7C231 63.7 254 77.3 277 77C300 76.7 323 62.3 346 53.8C369 45.3 392 42.7 415.2 42.5C438.3 42.3 461.7 44.7 484.8 50.8C508 57 531 67 554 74.5C577 82 600 87 623 88.5C646 90 669 88 692.2 80.8C715.3 73.7 738.7 61.3 761.8 61.5C785 61.7 808 74.3 831 72.7C854 71 877 55 888.5 47L900 39L900 151L888.5 151C877 151 854 151 831 151C808 151 785 151 761.8 151C738.7 151 715.3 151 692.2 151C669 151 646 151 623 151C600 151 577 151 554 151C531 151 508 151 484.8 151C461.7 151 438.3 151 415.2 151C392 151 369 151 346 151C323 151 300 151 277 151C254 151 231 151 207.8 151C184.7 151 161.3 151 138.2 151C115 151 92 151 69 151C46 151 23 151 11.5 151L0 151Z" fill="#74babc"></path><path d="M0 67L11.5 67.2C23 67.3 46 67.7 69 71C92 74.3 115 80.7 138.2 79.8C161.3 79 184.7 71 207.8 67C231 63 254 63 277 69.5C300 76 323 89 346 93.7C369 98.3 392 94.7 415.2 90.2C438.3 85.7 461.7 80.3 484.8 75.8C508 71.3 531 67.7 554 69.3C577 71 600 78 623 80.3C646 82.7 669 80.3 692.2 78.8C715.3 77.3 738.7 76.7 761.8 77C785 77.3 808 78.7 831 82.2C854 85.7 877 91.3 888.5 94.2L900 97L900 151L888.5 151C877 151 854 151 831 151C808 151 785 151 761.8 151C738.7 151 715.3 151 692.2 151C669 151 646 151 623 151C600 151 577 151 554 151C531 151 508 151 484.8 151C461.7 151 438.3 151 415.2 151C392 151 369 151 346 151C323 151 300 151 277 151C254 151 231 151 207.8 151C184.7 151 161.3 151 138.2 151C115 151 92 151 69 151C46 151 23 151 11.5 151L0 151Z" fill="#a2cfd0"></path><path d="M0 110L11.5 110C23 110 46 110 69 108.5C92 107 115 104 138.2 104C161.3 104 184.7 107 207.8 107.7C231 108.3 254 106.7 277 106.7C300 106.7 323 108.3 346 106.3C369 104.3 392 98.7 415.2 99.5C438.3 100.3 461.7 107.7 484.8 106.2C508 104.7 531 94.3 554 89.7C577 85 600 86 623 91C646 96 669 105 692.2 109.5C715.3 114 738.7 114 761.8 113.8C785 113.7 808 113.3 831 109.5C854 105.7 877 98.3 888.5 94.7L900 91L900 151L888.5 151C877 151 854 151 831 151C808 151 785 151 761.8 151C738.7 151 715.3 151 692.2 151C669 151 646 151 623 151C600 151 577 151 554 151C531 151 508 151 484.8 151C461.7 151 438.3 151 415.2 151C392 151 369 151 346 151C323 151 300 151 277 151C254 151 231 151 207.8 151C184.7 151 161.3 151 138.2 151C115 151 92 151 69 151C46 151 23 151 11.5 151L0 151Z" fill="#cde3e4"></path><path d="M0 131L11.5 132.5C23 134 46 137 69 134.3C92 131.7 115 123.3 138.2 118.7C161.3 114 184.7 113 207.8 112.2C231 111.3 254 110.7 277 111.8C300 113 323 116 346 121C369 126 392 133 415.2 131.8C438.3 130.7 461.7 121.3 484.8 119C508 116.7 531 121.3 554 121.2C577 121 600 116 623 115.8C646 115.7 669 120.3 692.2 124.3C715.3 128.3 738.7 131.7 761.8 132.5C785 133.3 808 131.7 831 129.8C854 128 877 126 888.5 125L900 124L900 151L888.5 151C877 151 854 151 831 151C808 151 785 151 761.8 151C738.7 151 715.3 151 692.2 151C669 151 646 151 623 151C600 151 577 151 554 151C531 151 508 151 484.8 151C461.7 151 438.3 151 415.2 151C392 151 369 151 346 151C323 151 300 151 277 151C254 151 231 151 207.8 151C184.7 151 161.3 151 138.2 151C115 151 92 151 69 151C46 151 23 151 11.5 151L0 151Z" fill="#f8f8f8"></path></svg>